<?xml version="1.0" standalone="no"?>
<!DOCTYPE svg PUBLIC "-//W3C//DTD SVG 20010904//EN"
 "http://www.w3.org/TR/2001/REC-SVG-20010904/DTD/svg10.dtd">
<svg version="1.0" xmlns="http://www.w3.org/2000/svg"
 width="44.000000pt" height="44.000000pt" viewBox="0 0 44.000000 44.000000"
 preserveAspectRatio="xMidYMid meet">

<g transform="translate(0.000000,44.000000) scale(0.100000,-0.100000)"
fill="#c30e0e" stroke="none">
<path d="M0 295 l0 -115 35 0 c28 0 35 -4 35 -20 0 -25 2 -25 50 0 22 11 55
20 75 20 l35 0 0 115 0 115 -115 0 -115 0 0 -115z m152 48 c24 -21 26 -113 3
-113 -8 0 -15 9 -15 20 0 15 -7 20 -25 20 -18 0 -25 -5 -25 -20 0 -11 -7 -20
-15 -20 -11 0 -15 11 -15 43 0 74 47 111 92 70z"/>
<path d="M97 324 c-14 -14 -6 -24 19 -24 16 0 24 5 22 13 -5 14 -31 21 -41 11z"/>
<path d="M260 230 c0 -79 0 -80 -25 -80 -22 0 -25 -4 -25 -35 0 -33 2 -35 35
-35 19 0 54 -11 79 -25 l45 -25 3 23 c2 17 11 23 36 25 l32 3 0 115 0 114 -90
0 -90 0 0 -80z m130 9 c0 -6 -9 -13 -20 -16 -11 -3 -20 -9 -20 -14 0 -5 9 -9
20 -9 11 0 20 -7 20 -15 0 -10 -10 -15 -30 -15 -16 0 -30 -4 -30 -10 0 -5 16
-10 35 -10 25 0 35 -4 35 -16 0 -12 -9 -14 -41 -12 -50 4 -71 27 -51 58 6 11
12 26 12 33 0 7 5 18 12 25 15 15 58 16 58 1z"/>
</g>
</svg>
